<?xml version="1.0" encoding="UTF-8" standalone="no"?>
<!-- Created with Inkscape (http://www.inkscape.org/) -->

<svg
   width="203.74261mm"
   height="101.58062mm"
   viewBox="0 0 203.74261 101.58062"
   version="1.1"
   id="svg5"
   inkscape:version="1.1 (c4e8f9e, 2021-05-24)"
   sodipodi:docname="light-wall-with-lights.svg"
   xmlns:inkscape="http://www.inkscape.org/namespaces/inkscape"
   xmlns:sodipodi="http://sodipodi.sourceforge.net/DTD/sodipodi-0.dtd"
   xmlns="http://www.w3.org/2000/svg"
   xmlns:svg="http://www.w3.org/2000/svg">
  <sodipodi:namedview
     id="namedview7"
     pagecolor="#ffffff"
     bordercolor="#666666"
     borderopacity="1.0"
     inkscape:pageshadow="2"
     inkscape:pageopacity="0.0"
     inkscape:pagecheckerboard="0"
     inkscape:document-units="mm"
     showgrid="false"
     inkscape:zoom="4.7589793"
     inkscape:cx="606.95788"
     inkscape:cy="316.7696"
     inkscape:window-width="1920"
     inkscape:window-height="1035"
     inkscape:window-x="1920"
     inkscape:window-y="23"
     inkscape:window-maximized="0"
     inkscape:current-layer="layer1"
     fit-margin-top="0"
     fit-margin-left="0"
     fit-margin-right="0"
     fit-margin-bottom="0" />
  <defs
     id="defs2" />
  <g
     inkscape:label="Layer 1"
     inkscape:groupmode="layer"
     id="layer1"
     transform="translate(3.857258,-71.30137)">
    <g
       transform="matrix(0.04524744,0,0,-0.04524744,-3.8431232,172.65575)"
       fill="#000000"
       stroke="none"
       id="g197">
      <path
         id="path125"
         style="stroke-width:0.189282"
         transform="matrix(5.2831091,0,0,-5.2831091,76.708014,3447.0481)"
         d="m 29.583984,228.47266 c -6.246322,0.18928 -4.733483,1.13556 13.626954,8.51757 11.546231,4.54278 26.121036,9.84334 32.55664,11.54688 11.356949,3.02852 11.924871,3.02801 17.414063,-0.56836 5.489192,-3.40708 7.194309,-3.40616 29.908199,-1.13477 34.26013,3.21781 35.20569,3.40637 38.04493,10.03125 0.17495,0.36448 0.29637,0.54547 0.45507,0.86133 1.18408,-0.0186 2.36837,-0.0259 3.55274,-0.0254 1.44085,6.1e-4 2.88181,0.0102 4.32226,0.0195 0.18041,-0.62383 0.10686,-1.23177 -0.38086,-1.80078 -2.27139,-2.64995 43.53639,-3.40777 53.56836,-0.75781 3.99217,1.04143 9.79227,4.3099 13.51758,7.47266 0.67622,-0.0108 1.35251,-0.0161 2.0293,-0.0156 1.22863,8.7e-4 2.45902,0.0149 3.6875,0.0234 1.2141,-0.002 2.42651,-0.005 3.64062,-0.004 0.24878,8.5e-4 0.49928,3.4e-4 0.74805,0 0.14612,3e-5 0.29138,2e-5 0.4375,0 0.18113,-2e-5 0.36204,0 0.54297,0 -0.53818,-0.42406 -0.91481,-0.78278 -1.51172,-1.23047 -3.59637,-2.64995 -3.59661,-2.83899 1.89258,-1.89258 3.2178,0.56821 12.11442,1.51419 19.875,2.08204 21.95677,1.89282 33.88215,4.35249 37.47851,7.94922 0.35062,0.32869 0.54864,0.48764 0.82813,0.74023 h 2.76953 c 0.0606,-0.2527 0.12172,-0.41134 0.1875,-0.74023 0.75713,-3.78601 2.83876,-3.97401 8.13867,-1.13477 2.27139,1.13569 10.41147,2.27004 18.36133,2.83789 22.33533,1.13569 36.15159,2.8396 37.47656,4.73242 0.56785,0.94641 6.81508,1.70313 14.00782,1.70313 15.00386,0 18.54369,0.74521 17.49609,5.05859 0.55397,0.0412 1.10734,0.0916 1.66016,0.14453 1.96854,0.18836 3.33999,0.32777 5.26171,0.67578 0.89737,-3.556 2.19561,-3.98437 6.43555,-3.98437 3.2178,0 11.16596,0.94633 17.60156,2.08203 9.08556,1.51426 12.30342,3.02778 13.06055,5.67773 0.2588,0.64701 0.5972,1.17265 0.92188,1.71485 0.182,-0.0284 0.37757,-0.0449 0.58984,-0.0449 h 6.3457 c -0.0463,-0.45623 0.0599,-0.98205 0.47266,-1.66993 1.32498,-2.0821 4.92092,-1.89324 21.19922,1.70313 10.7891,2.27139 28.58199,7.00324 39.37109,10.59961 10.7891,3.59637 22.90219,6.43557 27.06641,6.43554 4.67256,0 6.63109,0.49258 7.98242,2.52344 0.32271,-0.0364 0.66071,-0.0605 1.02148,-0.0605 h 5.6836 0.67187 l -1.91992,-3.97657 19.11719,-0.94531 c 22.70228,-1.34532 26.87405,-0.95541 33.5957,3.3418 0.16942,-0.11863 0.36887,-0.22768 0.60352,-0.32227 2.34263,-0.94436 4.61744,-2.05135 6.94531,-3.02929 -1.32421,-0.71308 -2.54601,-1.52063 -3.28711,-2.26172 -1.70354,-1.70355 -0.94725,-2.27149 3.40625,-2.27149 3.02852,0 6.24661,-0.75866 6.81445,-1.70508 0.75713,-0.94641 4.35285,-1.89275 7.94922,-2.08203 3.59637,0 12.68244,-1.70288 20.06445,-3.5957 17.71723,-4.42922 21.945,-3.19226 27.40821,8.62305 0.6965,-0.41902 1.39338,-0.86512 2.14453,-1.1836 0.50079,-0.21235 1.013,-0.40125 1.53711,-0.54687 0.57547,-0.15991 1.16434,-0.26938 1.75391,-0.36719 0.24679,-0.041 0.44118,-0.0683 0.63867,-0.0957 -1.127,-1.66574 0.0777,-3.40039 3.04883,-3.40039 4.73206,0 32.55614,10.78902 55.83789,21.57812 15.71044,7.38202 20.25428,8.70686 29.33984,8.51758 l 10.59961,-0.37891 -11.35742,-1.32422 c -7.76058,-0.94641 -16.46693,-3.97565 -27.44532,-9.46484 -8.89627,-4.54278 -22.52457,-10.41093 -30.28515,-13.43945 l -14.19727,-5.11133 7.00391,-1.32422 c 8.70699,-1.70354 11.16802,-1.1359 43.72461,10.59961 24.60672,8.70699 26.87744,9.27505 42.58789,8.89648 14.76403,-0.56784 17.41427,1.9e-4 26.31055,4.54297 9.84268,5.29991 15.71093,6.6244 15.71093,3.78516 0,-0.75713 -6.43668,-4.16323 -14.19726,-7.57031 -13.24978,-5.86776 -15.33107,-6.24686 -27.25586,-4.92188 -14.38547,1.32498 -19.49632,0.18923 -52.24219,-13.06054 -18.54968,-7.38238 -19.30622,-7.57193 -40.50586,-7.19336 l -21.57812,0.3789 -10.03321,-6.81445 -10.03125,-7.00195 -9.84179,3.21679 c -5.29991,1.89283 -16.8477,6.62468 -25.55469,10.59961 -19.11753,8.89628 -27.82409,10.41082 -36.3418,6.81446 -4.92134,-2.08247 -13.43888,-2.46026 -38.80273,-1.70313 -30.85305,0.75713 -33.31351,0.568 -49.5918,-4.16406 -23.47103,-6.81417 -86.88097,-17.03679 -132.49805,-21.01172 -7.19273,-0.75713 -17.03551,-2.46018 -21.76757,-3.78516 -12.30337,-3.59636 -21.95711,-5.10945 -19.875,-3.02734 1.13569,0.94641 3.59758,2.27004 5.67968,2.83789 2.08211,0.56785 -1.13615,0.7573 -7.0039,0.18945 -5.86776,-0.37856 -12.30444,-1.51469 -14.19727,-2.65039 -2.64995,-1.51426 -1.70174,-1.70261 4.16602,-1.13476 l 7.57031,0.94531 -8.51758,-2.45899 c -6.05704,-1.89282 -8.89538,-1.89316 -9.8418,-0.3789 -1.32497,2.27139 -45.99728,-1.1364 -66.81835,-5.11133 -9.46449,-1.89282 -10.6003,-2.46001 -6.625,-3.5957 10.22125,-2.83924 42.9674,-0.37982 65.30273,5.10937 9.65341,2.27139 3.78537,-1.13554 -6.81445,-4.16406 -13.43906,-3.78565 -76.65788,-6.05655 -100.12891,-3.78516 -12.49264,1.1357 -21.20001,0.9459 -28.58203,-0.56836 -5.67848,-1.13569 -12.87204,-2.08203 -16.08984,-2.08203 l -5.48829,-0.18945 5.29883,-2.83789 c 4.73206,-2.46067 8.14053,-2.65064 25.36524,-0.75781 10.97838,1.13569 20.25229,1.70278 20.63086,1.32422 0.37856,-0.37893 -8.3286,-2.27107 -19.68555,-3.97461 -19.4961,-3.21781 -20.82043,-3.21781 -27.44531,0 -7.00346,3.40708 -7.00355,3.40843 -21.76758,-2.83789 -7.94987,-3.40745 -16.27922,-6.62552 -18.36133,-7.19336 -6.246322,-1.51426 10.7902,8.1391 18.55078,10.78906 11.16767,3.59637 7.00239,4.35325 -9.84375,1.89258 -13.439019,-2.08211 -15.898284,-1.89215 -20.062499,0.75781 -6.814169,4.54278 -10.41209,3.97389 -34.261719,-5.49024 -12.492643,-4.92134 -24.415863,-8.51757 -28.580078,-8.51757 z m 626.902346,54.89257 c 1.13569,0 3.97504,0.56709 6.625,1.32422 3.78565,0.94642 1.89406,1.89285 -9.46289,4.35352 -7.76058,1.70354 -16.6572,3.78584 -19.875,4.54297 -4.92135,1.13569 -5.11055,0.94787 -2.08203,-0.94532 3.97493,-2.46067 21.95568,-9.0861 24.79492,-9.27539 z m -102.35352,15.5918 c 3.97493,-0.0237 7.52397,0.40214 12.44531,1.25391 6.43597,1.32497 2.83816,1.51367 -14.19726,1.51367 -16.27829,0 -20.06417,-0.37781 -13.25,-1.32422 6.62489,-0.94641 11.02702,-1.4197 15.00195,-1.44336 z" />
      <path
         d="m 1310,1953 c -19,-7 -70,-61 -70,-74 0,-5 6,-9 13,-9 23,0 56,-225 35,-232 -8,-3 -6,-12 7,-29 17,-21 25,-24 55,-18 19,4 45,5 56,3 32,-8 98,13 123,39 30,33 37,86 17,126 -15,29 -44,47 -101,66 -19,6 -18,7 6,20 15,8 29,21 33,30 8,22 -10,62 -33,74 -20,11 -114,14 -141,4 z m 140,-62 c 0,-24 -20,-32 -92,-40 -55,-6 -58,-5 -58,15 0,25 41,41 108,43 35,1 42,-2 42,-18 z m 3,-130 c 37,-14 57,-39 57,-71 0,-41 -37,-65 -90,-56 -25,4 -40,2 -40,-4 0,-5 -8,-10 -18,-10 -28,0 -67,122 -45,143 10,10 108,8 136,-2 z"
         id="path129" />
      <path
         d="m 840,1815 c -52,-131 -53,-135 -36,-160 21,-32 25,-29 46,33 16,45 18,47 61,53 24,3 50,8 57,10 9,3 25,-24 46,-76 25,-62 37,-81 54,-83 12,-2 22,-1 22,1 0,11 -133,333 -142,345 -6,6 -20,12 -33,12 -19,0 -29,-18 -75,-135 z m 114,9 c 9,-20 16,-38 14,-39 -8,-8 -78,-23 -78,-17 0,13 35,92 41,92 3,0 13,-16 23,-36 z"
         id="path131" />
      <path
         id="path133"
         style="stroke-width:0.189282"
         transform="matrix(5.2831091,0,0,-5.2831091,76.708014,3447.0481)"
         d="m 321.24609,285.91211 c -2.04957,0.0325 -3.95253,0.24404 -5.46679,0.66992 -15.1426,4.16422 -24.41778,22.90369 -19.875,39.56055 5.86775,20.63179 36.15221,39.93864 44.66992,28.20312 3.40708,-4.73206 1.515,-6.81394 -5.67774,-6.24609 -7.94986,0.56785 -22.90287,-8.13998 -27.82421,-16.08984 -9.08556,-15.1426 1.51272,-37.28711 17.79101,-37.28711 4.92135,0 9.84299,3.40609 11.16797,7.57031 0.56785,1.70354 1.51453,0.18995 2.46094,-3.5957 0.94641,-4.54278 0.56843,-7.00383 -1.51367,-9.08594 -2.12943,-2.27139 -9.5837,-3.79682 -15.73243,-3.69922 z" />
      <path
         id="path135"
         style="stroke-width:0.189282"
         transform="matrix(5.2831091,0,0,-5.2831091,76.708014,3447.0481)"
         d="m -14.208984,299.11328 c -0.298712,0.11535 -0.310547,0.52981 -0.310547,1.09766 0,1.13569 5.6783592,6.24679 12.8710935,11.35742 8.7069942,6.62489 21.7682585,13.06007 42.0214845,21.19922 16.089011,6.4356 33.123407,13.81815 37.855469,16.2793 13.249773,7.00345 24.985644,14.19582 24.228514,14.76367 -0.37856,0.37856 -8.518297,-0.37993 -17.982421,-1.51563 -12.492643,-1.32498 -17.603515,-2.64819 -17.603515,-4.54101 0,-3.59637 -5.677488,-5.48946 -7.570313,-2.46094 -1.324977,2.08211 -2.649262,2.08211 -7.949219,0 -9.464124,-3.78565 -48.8354622,-26.31049 -56.9746089,-32.74609 -3.9749321,-3.02899 -7.7602771,-5.11065 -8.3281251,-4.35352 -0.75713,0.56785 -0.757471,1.32456 -0.378906,1.70312 0.378565,0.37857 3.974287,2.83867 7.9492186,5.86719 12.4926485,9.08556 53.0001134,31.42095 59.6250004,32.55664 5.678474,1.1357 6.24507,1.70493 5.109375,5.86914 -0.115568,0.5118 0.09185,0.9133 0.02148,1.42383 0.355003,-0.0184 0.479548,-0.0129 1.230469,0.0176 0.332707,0.0652 0.665339,0.13009 0.998047,0.19531 0.235491,10e-5 0.325871,-10e-4 0.675781,0.004 0.598469,0.009 1.181892,0.0227 1.78125,-0.0469 0.456506,0.0504 0.918668,0.0626 1.369141,0.15235 0.15538,0.031 0.307404,0.0779 0.457031,0.13086 0.156333,0.0294 0.31249,0.0581 0.46875,0.0879 0.07685,0.002 0.154184,0.005 0.230469,0.006 0.04824,3e-4 0.09633,0.003 0.144531,0.004 -0.10291,-0.54753 0.242952,-1.38077 0.0059,-1.78711 -0.75713,-1.32497 1.702897,-1.51299 7.949219,-0.75586 5.110627,0.75713 16.089539,2.08272 24.417969,2.83985 11.735517,1.13569 18.172007,3.02838 29.150397,8.51758 17.79255,9.08555 46.94108,21.95559 50.91601,22.52343 1.89283,0.18929 4.16509,1.13528 5.30078,1.70313 0.94642,0.75713 14.76417,3.21884 30.47461,5.49023 l 28.39063,4.35352 3.01953,5.66015 h 6.00391 1.52929 0.33008 c -0.11329,-0.17334 -0.16149,-0.38311 -0.28125,-0.55078 -3.02852,-4.35349 -3.02911,-4.54194 1.51367,-3.40625 6.24632,1.51426 39.37083,6.81438 56.40625,8.89649 12.30336,1.70354 14.19541,1.51485 16.4668,-1.51367 2.46067,-3.02852 2.84028,-3.03014 5.49023,0.37695 2.46068,3.2178 4.16319,3.40896 18.35938,2.08398 17.2247,-1.70354 35.7751,-2.08296 48.45703,-0.94726 7.5713,0.56784 7.94922,0.94635 7.94922,6.43554 v 0.008 c 0.17623,-10e-4 0.3515,-0.005 0.52734,-0.0156 0.91809,-0.0548 1.83146,-0.16396 2.74414,-0.27734 1.565,-0.19458 2.89198,-0.41767 4.40625,-0.74024 0.2136,-4.44508 1.49675,-5.03338 9.92578,-7.30273 5.29991,-1.32498 16.08903,-5.29995 23.84961,-8.70703 16.16166,-7.51705 17.1987,-7.54443 17.21289,-2.72852 1.79126,-0.43209 3.57679,-0.90455 5.32813,-1.47461 0.34716,-0.113 0.69124,-0.23604 1.0332,-0.36328 -1.99394,-5.46406 -1.57742,-6.06091 3.11524,-8.49414 3.02852,-1.51426 11.54571,-3.59673 18.92773,-4.73242 7.38202,-1.1357 20.06364,-3.21833 27.82422,-4.92188 14.25344,-2.91937 17.10987,-2.49337 17.52148,4.52344 0.55606,-8.9e-4 1.11213,8.3e-4 1.66797,-0.002 1.87658,-0.004 3.75316,6.5e-4 5.62891,0.0351 -0.82258,-2.34155 -1.29222,-4.42262 -0.96875,-4.74609 0.75713,-0.75713 35.20659,2.08213 52.05273,4.35352 5.11063,0.56784 7.94922,1.89428 7.94922,3.78711 0,0.2199 0.0823,0.40976 0.13477,0.61132 h 4.16601 0.73243 c 0.0557,0 0.14493,-0.0347 0.20507,-0.0391 0.0361,-0.003 0.062,0.006 0.0625,0.0391 v 0.002 c 0.0664,-1.9e-4 0.14042,-0.002 0.20899,-0.002 0.0835,-0.2599 0.16992,-0.52066 0.16992,-0.80078 0,-2.27139 3.59526,-2.84001 20.44141,-3.02929 11.16766,-0.18929 25.365,-0.946 31.61132,-1.70313 10.22126,-1.13569 10.59933,-1.32473 3.78516,-1.89258 l -7.57031,-0.56836 9.46289,-1.32422 c 5.29991,-0.94641 14.57594,-1.51545 20.82226,-1.32617 l 11.35547,0.18946 -13.25,1.13671 -13.24804,1.13477 16.27734,0.37891 c 11.54623,0.37856 18.36042,1.32482 23.84961,4.16406 4.16421,1.89282 13.81737,5.3007 21.38867,7.38281 7.5713,2.08211 14.19565,4.16441 14.57422,4.54297 0.19704,0.29556 0.0673,1.5625 -0.24414,3.33008 1.01243,0.17756 2.01909,0.38948 3.01758,0.63476 0.66459,0.16328 1.31449,0.37895 1.97265,0.56641 1.40262,0.39958 1.03529,0.28726 1.75391,0.50977 0.23095,-2.06558 0.61062,-3.7168 1.26172,-3.7168 0.75713,0 9.46429,1.32575 19.68554,3.0293 16.08949,2.83923 20.63111,3.02725 38.23438,0.75586 17.79255,-2.27139 20.06445,-2.83901 20.06445,-6.2461 0,-2.83924 -0.94626,-3.40735 -4.16406,-2.46094 -2.46067,0.56785 -13.06051,2.46052 -23.84961,4.16407 -18.92825,2.83923 -19.49586,2.84033 -25.74219,-0.94532 -3.59636,-2.27139 -7.7613,-3.40769 -9.46484,-2.83984 -5.29991,2.08211 -46.37426,-8.32919 -71.54883,-18.17187 -9.6534,-3.78565 -10.97775,-3.78505 -51.29492,2.83984 -22.7139,3.59637 -37.66685,3.59568 -73.25195,-0.75781 -16.08901,-1.89283 -38.993,-3.59588 -50.72852,-3.78516 -20.44251,-0.18928 -22.14553,-6e-5 -38.42383,6.43555 -15.1426,6.05704 -26.50069,8.708 -70.60351,16.27929 -6.05704,0.94642 -12.6814,2.6493 -14.57422,3.59571 -1.89283,1.13569 -10.22023,1.89258 -18.35938,1.89258 -13.24977,0 -34.26126,3.02863 -46.7539,6.625 -3.02852,0.94641 -4.3531,-0.18965 -6.05664,-4.73243 -2.46068,-6.81417 -6.2461,-6.05601 -6.2461,1.13672 0,5.11063 3.02746,5.11114 -29.33984,0.56836 -21.5782,-2.83924 -57.73121,-13.43887 -91.04492,-26.31055 -15.71045,-6.24632 -32.74484,-12.11383 -37.85547,-13.25 -5.11063,-1.32497 -13.06091,-3.40761 -17.79297,-4.92187 -4.73206,-1.51426 -14.76481,-2.65039 -22.52539,-2.65039 -14.95332,0 -23.28159,-3.02757 -43.156254,-16.27734 C 79.172961,344.8619 64.600236,338.25745 52.296875,333.52539 21.822395,321.78988 18.984225,320.46522 3.6523438,310.05469 -9.8340378,301.11109 -13.31285,298.76725 -14.208984,299.11328 Z M 123.6875,367.1582 c 1.9463,-0.11836 4.96228,-0.0354 8.3457,0.20118 6.76685,0.4732 15.00074,1.56174 19.07032,2.88671 54.70263,17.41399 94.63967,32.17681 91.42187,33.3125 -2.46067,0.94642 -27.25546,-2.64913 -52.80859,-7.75976 -3.21781,-0.56785 -5.48897,-2.65066 -6.2461,-5.11133 -1.13569,-3.97493 -1.32643,-3.97366 -3.78711,-0.75586 -2.64995,3.40709 -3.97369,3.02704 -28.95898,-8.14062 -14.38547,-6.43561 -27.44668,-12.49126 -28.96094,-13.62696 -0.89909,-0.56784 -0.0225,-0.8875 1.92383,-1.00586 z m 390.57812,14.96485 c 2.05892,-0.14196 3.09903,0.33199 4.61329,1.37304 1.70354,0.94642 -0.1905,1.89131 -5.67969,2.64844 -4.54278,0.56785 -11.16731,1.70381 -14.76367,2.46094 -9.46413,1.89282 -5.48896,-1.32483 5.11133,-4.16406 5.58383,-1.41962 8.6603,-2.1764 10.71874,-2.31836 z m -52.74023,15 c 2.08211,0 -1.51361,2.27226 -7.94922,5.30078 -6.4356,3.2178 -17.79198,7.76037 -25.36328,10.59961 -13.24977,4.73206 -13.44031,4.73291 -14.38672,0.94726 -1.32498,-4.92134 -6.24609,-4.92134 -6.24609,0 0,3.59637 -0.75709,3.78396 -10.78906,2.45899 -12.49265,-1.70354 -19.68437,-1.70337 -42.20899,0.18945 -10.03197,0.75713 -14.57608,0.56929 -12.30469,-0.56641 6.43561,-2.83923 38.23535,-6.4363 45.80664,-5.11132 4.3535,0.56784 10.60031,4.1e-4 15.71094,-1.70313 8.707,-2.64995 51.10558,-11.54739 57.73047,-12.11523 z m -214.30664,5.68164 c 1.1978,-0.34586 4.81791,0.61255 14.61328,3.59375 l 12.30469,3.5957 -9.46484,-1.13476 c -9.84316,-1.13617 -17.98243,-3.59724 -17.98243,-5.30079 0,-0.37856 0.13003,-0.63862 0.5293,-0.7539 z m 513.45313,6.09179 c 0.0668,0.016 0.13244,0.0324 0.19726,0.0547 0.0584,0.0201 -0.0843,-0.0238 -0.19726,-0.0547 z" />
      <path
         d="m 2092,1828 c -7,-7 -12,-18 -12,-24 0,-7 -10,-14 -22,-16 -13,-2 -24,-11 -26,-21 -3,-16 2,-18 34,-15 38,3 39,2 46,-37 4,-22 5,-79 2,-127 -5,-72 -3,-90 10,-103 12,-12 16,-13 16,-3 0,17 61,65 93,73 13,4 39,22 57,40 27,28 34,44 38,87 3,44 0,58 -19,82 -28,36 -76,56 -133,56 -25,0 -48,5 -51,10 -8,13 -18,13 -33,-2 z m 186,-84 c 41,-29 18,-116 -41,-152 -53,-34 -67,-29 -68,21 0,23 -4,63 -8,89 -4,27 -6,50 -3,53 12,12 99,4 120,-11 z"
         id="path137" />
      <path
         id="path139"
         style="stroke-width:0.189282"
         transform="matrix(5.2831091,0,0,-5.2831091,76.708014,3447.0481)"
         d="m 705.18359,307.88086 c -1.1978,0.0325 -2.55845,0.84724 -4.02539,2.55078 -1.32497,1.70354 -1.51494,7.00343 -0.75781,15.14258 l 1.13672,12.68359 h -9.27539 c -16.46758,0 -17.60318,-0.94757 -17.22461,-12.11523 0.37856,-9.08556 0.18926,-9.65235 -4.35352,-9.65235 -3.2178,0 -4.73225,0.94541 -4.54297,3.2168 0,1.89283 0.18963,10.78927 0.37891,19.68555 0.18928,10.22125 1.13579,15.71025 2.27149,14.95312 1.13569,-0.56784 1.89257,0.56829 1.89257,2.65039 0,2.27139 0.94617,3.97461 1.89258,3.97461 1.1357,0 1.89258,-3.78546 1.89258,-8.51758 v -8.51757 l 13.25,0.3789 13.25,0.56641 v 12.87305 c 0,11.54623 0.37858,12.8705 4.35352,14.38476 4.16421,1.51426 4.16296,1.32449 5.10937,-15.71094 0.56785,-9.46412 0.37839,-17.4144 -0.18945,-17.79296 -0.75713,-0.37857 -0.75535,-6.05671 -0.1875,-12.68165 0.85177,-11.21498 -1.27769,-18.16986 -4.8711,-18.07226 z" />
      <path
         d="m 2588,1803 c -43,-5 -52,-17 -62,-85 -5,-32 -12,-48 -22,-48 -19,0 -18,-29 2,-37 14,-5 16,-17 10,-75 -6,-71 -2,-78 33,-56 14,9 38,8 102,-1 123,-19 124,-19 127,7 2,12 1,22 -3,22 -3,0 -42,9 -86,21 -74,19 -82,19 -104,5 -34,-22 -35,-21 -35,23 v 39 l 61,11 c 34,6 64,13 66,15 13,12 -13,26 -58,32 -48,6 -50,8 -44,33 9,37 32,51 87,51 26,0 48,4 48,8 0,11 -55,42 -72,40 -7,-1 -30,-3 -50,-5 z"
         id="path141" />
      <path
         id="path143"
         style="stroke-width:0.189282"
         transform="matrix(5.2831091,0,0,-5.2831091,76.708014,3447.0481)"
         d="m 543.58008,317.53125 c -0.94641,0 -1.60938,0.47156 -1.60938,1.41797 0,0.75713 -1.89267,2.27234 -4.16406,3.21875 -5.86776,2.64995 -6.247,6.2455 -0.75781,7.75976 4.54278,1.1357 4.73242,1.51578 4.73242,16.84766 -0.18928,17.41399 0.56923,19.87305 5.86914,19.87305 3.02852,0 3.40608,-1.32451 3.2168,-8.13867 -0.37857,-7.19274 2e-5,-7.94974 4.35351,-8.51758 2.64996,-0.37857 5.86856,-0.94583 7.38282,-1.51367 4.35349,-1.51426 -1.51523,-6.43555 -7.57227,-6.43555 -4.73206,0 -5.48828,-0.75834 -5.48828,-5.67969 V 330.875 l 12.30273,0.37891 c 7.00345,0.18928 12.30274,-0.37993 12.30274,-1.51563 0,-1.13569 -1.89268,-2.08042 -4.16406,-2.45898 -5.48923,-0.75713 -20.82041,-6.24797 -23.0918,-8.33008 -1.1357,-0.94641 -2.36609,-1.41797 -3.3125,-1.41797 z" />
      <path
         d="m 3295,1754 c -61,-31 -95,-79 -95,-132 0,-40 38,-93 83,-115 31,-16 42,-17 72,-7 45,15 57,38 52,97 l -4,48 -43,3 c -51,4 -66,-7 -51,-37 8,-14 21,-21 41,-21 37,0 39,-17 5,-26 -60,-15 -113,37 -100,97 12,53 104,107 106,62 0,-13 3,-12 10,5 5,13 7,28 3,33 -8,14 -46,11 -79,-7 z"
         id="path145" />
      <path
         d="m 4255,1731 c 17,-4 51,-20 76,-34 36,-21 59,-27 107,-27 34,0 62,4 62,9 0,5 -28,8 -62,8 -53,-2 -70,2 -105,26 -26,16 -55,27 -75,26 l -33,-1 z"
         id="path147" />
      <path
         id="path149"
         style="stroke-width:0.189282"
         transform="matrix(5.2831091,0,0,-5.2831091,76.708014,3447.0481)"
         d="m 28.412109,392.52344 c -4.79113,-0.0149 -8.33936,0.0568 -9.427734,0.24609 -2.839237,0.56785 -5.490481,6.81421 -3.597656,8.70703 0.567847,0.56785 7.381825,1.13672 14.953125,1.13672 h 14.007812 l -1.326172,29.7168 c -0.75713,16.46757 -1.513842,30.09587 -1.703125,30.28515 -0.189282,0.37857 -5.300211,-0.37814 -11.167968,-1.70312 -9.08556,-1.70354 -11.167381,-1.70303 -12.681641,0.56836 -1.892825,3.2178 -0.568152,4.54162 8.328125,7.38086 l 7.193359,2.27148 -1.324218,8.70703 c -0.75713,4.92135 -1.514014,9.27574 -1.892578,9.6543 -0.378625,0.37857 -9.464635,-2.84003 -20.0644536,-7.38281 -25.5531354,-10.41054 -25.5525294,-10.599 -23.0917964,-7.75977 1.135694,1.1357 11.3559412,6.05683 22.7128901,10.59961 16.0890109,6.62489 20.8213359,9.46384 21.9570309,12.68164 0.567848,2.46067 1.134937,3.02776 1.324219,1.32422 0.189283,-2.08211 2.462075,-2.83806 10.222656,-3.02734 12.681927,-0.18928 18.7383,3.02746 23.091797,12.49219 3.02852,7.00345 4.163664,7.75976 10.220703,7.75976 6.05704,0 27.256746,-4.92138 36.910156,-8.70703 2.28775,-0.94202 2.95748,-0.5116 2.77734,2.42578 0.87049,-0.26121 1.74273,-0.51801 2.61719,-0.76367 1.42708,-0.40092 2.7859,-0.78907 4.19531,-1.08789 l 0.0645,-3.22266 h 7.1914 c 13.24978,0 64.7348,21.19958 63.03125,25.93164 -0.56784,1.1357 0.75774,2.4595 2.83985,3.02735 1.89282,0.56784 3.5957,0.37822 3.5957,-0.37891 0,-2.08211 35.77459,-0.94565 47.88867,1.51563 10.22126,2.27138 10.97962,2.83952 10.03321,6.81445 -0.0987,0.3949 -0.11081,0.70793 -0.16407,1.05859 1.41386,0.25201 2.81652,0.56522 4.20703,0.92383 0.44199,0.11395 0.88013,0.24259 1.31446,0.38281 1.1902,0.38438 0.52167,0.26363 1.00195,0.34375 0.0157,0.003 0.0275,0.007 0.043,0.01 0.005,-0.3706 0.0332,-0.57677 0.0332,-1.01563 0,-4.16421 0.75681,-4.73174 3.97461,-3.97461 2.08211,0.56785 8.89609,0.18843 14.95313,-0.94726 10.22125,-1.89283 11.35685,-1.89256 17.22461,2.46094 5.67847,3.97493 8.51772,4.54296 23.84961,4.54296 h 17.41406 l 3.91015,4.25586 c 0.0231,-0.0412 0.0467,-0.0823 0.0703,-0.12304 0.18209,-0.16959 0.35045,-0.35512 0.54687,-0.50782 0.29126,-0.22669 0.60888,-0.41643 0.91211,-0.62695 0.44365,-0.3078 0.86774,-0.65372 1.33399,-0.92773 0.23121,-0.1358 0.47272,-0.25387 0.70898,-0.38086 0.15332,-0.0884 0.30312,-0.18172 0.45898,-0.26563 0.31329,-0.16894 0.85358,-0.43004 1.19336,-0.62695 0.30895,-0.179 0.61139,-0.36572 0.91993,-0.54492 -3.80363,-4.36987 -3.48243,-4.79043 0.16601,-5.74219 2.64996,-0.56785 7.38283,0.379 11.73633,2.65039 9.27484,4.73206 11.73585,4.73189 19.875,-0.18945 6.24632,-3.78565 7.19207,-3.97452 23.0918,-1.70313 l 16.65625,2.46094 v 3.95312 h 6.52148 c 0.50457,0.027 1.0047,0.0958 1.50391,0.16993 0.377,-2.9545 1.02409,-4.69141 2.38476,-4.69141 1.51426,0 7.76115,-1.70288 13.62891,-3.5957 6.05704,-2.08211 18.92862,-4.16458 28.58203,-4.73242 l 17.41406,-1.32422 v 4.33398 h 6.69922 c -0.0916,-0.38175 -0.14971,-0.68414 -0.26367,-1.11719 -0.94641,-3.97493 -0.56758,-4.92187 2.46094,-4.92187 2.0821,0 8.70663,-1.70305 14.76367,-3.78516 6.24632,-2.0821 15.9005,-3.78515 22.52539,-3.78515 h 11.54492 v 5.84765 h 7.51367 0.14453 c -0.11619,-0.22202 -0.15139,-0.31264 -0.27539,-0.54883 -2.64995,-4.92134 -2.65012,-5.67688 -0.18945,-4.73046 1.51426,0.56784 18.54883,1.7038 38.04492,2.46093 32.55659,1.1357 35.20703,1.51267 35.20703,4.73047 0,0.30423 0.0825,0.52691 0.12305,0.79102 h 7.00781 c -0.0459,-0.26599 -0.0378,-0.47909 -0.12695,-0.79102 -0.75713,-3.02852 0.94588,-3.78491 14.57422,-5.67773 29.1495,-3.97493 44.10232,-4.54271 62.27344,-2.08203 l 17.98242,2.27148 -0.23047,3.53906 c 1.23914,0.0793 2.67279,0.17684 3.51172,0.30078 0.7371,0.10883 1.46907,0.2562 2.19531,0.42383 -0.0952,-1.54407 -0.0849,-2.72657 0.26758,-2.72656 0.37857,0 5.29971,1.32558 10.78906,2.83984 8.32843,2.46068 13.25032,2.64904 28.77149,1.13477 13.43907,-1.51426 24.03979,-1.3248 37.85742,0.18945 16.84615,1.89299 24.03846,1.5152 21.19922,-1.13476 -2.2714,-2.27139 -41.45388,-4.54408 -59.625,-3.59766 -17.98185,0.94642 -24.60583,0.37873 -48.83399,-4.16406 l -28.01367,-5.48828 -31.60937,3.5957 c -31.04252,3.2178 -84.04237,3.21763 -124.54883,-0.18945 -11.73552,-0.94642 -15.71048,-0.37711 -28.20313,3.78711 -10.59983,3.78566 -21.00984,5.48752 -38.42383,6.8125 -13.0605,0.94642 -28.39361,3.02888 -33.88281,4.73242 -14.19634,4.35351 -21.95677,4.73165 -38.99219,1.70312 -14.00692,-2.27139 -15.14174,-2.27003 -22.90234,1.51563 l -8.13867,3.97461 -9.84375,-4.16406 -9.8418,-4.35352 -9.08594,3.97461 c -13.0605,5.67848 -32.17802,4.92211 -43.3457,-1.32422 -7.76059,-4.54278 -8.89575,-4.73251 -18.92773,-2.65039 -9.08556,1.70354 -12.87097,1.51485 -25.74219,-1.51367 -10.03197,-2.46069 -21.76796,-3.7871 -35.20703,-3.78711 -16.84615,0 -20.44225,-0.56668 -21.38867,-3.02735 -0.75714,-1.89291 -2.27124,-2.6497 -4.16407,-1.89257 -1.89284,0.75714 -6.81515,-1.13571 -11.92578,-4.35352 -4.73208,-3.02853 -15.89864,-8.32925 -24.79492,-11.73633 -21.19964,-7.95003 -38.42492,-8.13983 -63.410156,-0.75781 -22.903187,7.00345 -23.849114,7.00437 -27.634766,-1.13477 -4.752434,-9.65679 -8.535039,-11.92681 -21.40625,-13.0625 l -11.5625,-0.95507 -0.568359,-10.03125 -0.56836,-10.03125 6.248047,0.5664 c 4.732062,0.37857 6.434447,1.70441 7.38086,5.30078 1.324994,4.73207 1.324371,4.73241 1.513672,0.37891 0.189283,-3.78565 0.947453,-4.35478 5.490234,-3.4082 14.385469,2.64995 26.499225,3.21883 27.824219,1.13672 2.460673,-3.97493 -3.785367,-7.76164 -17.035157,-9.84375 l -12.875,-2.08399 1.324219,-28.39258 c 0.757131,-15.52116 1.893089,-29.52657 2.460938,-30.85156 0.567848,-1.70354 4.163662,-2.65039 10.220703,-2.65039 7.949864,0 9.275387,-0.56719 9.27539,-3.78516 0,-2.27138 -1.514106,-3.97529 -4.164062,-4.73242 -3.832972,-0.7098 -29.386373,-1.52756 -43.759766,-1.57226 z m 732.259771,16.37304 c 0.0668,0.016 0.13244,0.0324 0.19726,0.0547 0.0584,0.0201 -0.0843,-0.0238 -0.19726,-0.0547 z M 247.41406,550.02734 c 0.006,-0.015 -0.0194,0.0815 -0.0703,0.25977 0.0332,-0.135 0.064,-0.24391 0.0703,-0.25977 z m 179.85352,14.48047 c -1.6e-4,0.002 1.5e-4,0.004 0,0.006 h 0.002 c -7.6e-4,-0.002 6.5e-4,-0.004 -0.002,-0.006 z" />
      <path
         id="path155"
         style="stroke-width:0.189282"
         transform="matrix(5.2831091,0,0,-5.2831091,76.708014,3447.0481)"
         d="m 491.21289,408.51172 c -0.16941,0.007 -0.32483,0.0244 -0.4668,0.0547 -1.70354,0.36377 -1.49044,2.5638 -0.63867,10.51367 0.56785,6.05704 1.89343,17.79266 2.83985,26.12109 0.94641,8.32843 1.70312,16.84563 1.70312,18.92774 -0.18928,3.78565 -0.19006,3.78565 -3.0293,0 -24.796,-33.12444 -30.4729,-37.66638 -28.58007,-22.90235 3.02852,21.57821 3.59577,38.42503 1.51367,39.75 -3.78565,2.46067 -2.46075,7.19268 2.08203,6.43555 3.97493,-0.56785 4.16355,-1.32573 3.5957,-18.17188 -0.18928,-9.46412 0.19031,-17.41406 1.13672,-17.41406 1.32498,0.18928 21.5779,24.03944 27.82422,33.125 3.40708,4.73206 4.73252,3.40719 7.00391,-6.43555 1.51426,-6.62488 1.1356,-9.08605 -2.27149,-15.71093 -3.2178,-6.24632 -4.35437,-12.87168 -5.30078,-30.85352 -1.13569,-21.76748 -1.32407,-22.7134 -5.48828,-23.28125 -0.78079,-0.10647 -1.41561,-0.17941 -1.92383,-0.1582 z" />
      <path
         id="path157"
         style="stroke-width:0.189282"
         transform="matrix(5.2831091,0,0,-5.2831091,76.708014,3447.0481)"
         d="m 212.38867,412.47266 c -2.86031,0.11978 -7.97905,0.81028 -16.42578,1.875 -11.73551,1.51426 -48.83603,11.35768 -51.10742,13.81836 -0.37857,0.37856 -0.18877,1.70414 0.56836,2.83984 0.75713,1.32498 5.48993,1.51299 13.81836,0.75586 7.00345,-0.75713 14.00722,-1.51367 15.52148,-1.51367 3.02852,-0.18929 7.19158,19.68604 7.38086,35.39648 0.37857,17.41399 -14.76282,25.17465 -33.3125,17.41406 -7.5713,-3.2178 -9.84263,-2.46109 -6.43555,1.70313 4.16422,4.92134 18.54853,9.27437 26.87696,8.13867 10.03197,-1.32498 20.0642,-10.60033 21.95703,-20.06445 1.13569,-6.62489 -1.70339,-35.77338 -4.16406,-42.20899 -1.1357,-2.64995 0.75658,-3.59741 10.2207,-5.49023 9.27484,-1.70354 12.49296,-3.4061 15.52148,-7.57031 2.83924,-3.90395 4.34726,-5.29339 -0.41992,-5.09375 z" />
      <path
         d="m 2943,1238 c -51,-53 -86,-141 -91,-230 -5,-91 1,-120 30,-148 52,-48 127,-14 178,81 42,78 54,193 26,247 -9,18 -20,32 -25,32 -4,0 -6,-35 -3,-78 6,-102 -16,-182 -63,-229 -85,-85 -124,12 -69,175 27,81 65,142 90,142 7,0 14,7 14,15 0,8 -6,15 -14,15 -8,0 -20,2 -28,5 -7,3 -28,-9 -45,-27 z"
         id="path159" />
      <path
         d="m 3240,1251 c -25,-7 -26,-11 -21,-68 l 2,-28 11,25 11,25 4,-25 c 6,-42 44,-204 54,-228 13,-33 11,-52 -6,-52 -8,0 -15,-4 -15,-9 0,-21 13,-41 26,-41 8,0 19,-10 24,-22 6,-16 9,-18 9,-6 1,9 7,18 14,21 9,3 9,9 0,25 -7,11 -15,43 -19,71 -6,46 -5,51 12,51 32,0 123,59 139,90 33,65 7,126 -69,161 -42,19 -127,24 -176,10 z m 147,-42 c 40,-15 83,-59 83,-84 0,-30 -38,-62 -99,-85 -39,-15 -53,-17 -56,-8 -2,7 -12,48 -23,91 -17,71 -17,79 -3,87 22,13 64,12 98,-1 z"
         id="path161" />
      <path
         d="m 1350,1135 c -6,-16 -8,-79 -4,-163 6,-125 12,-151 35,-152 9,0 22,76 21,123 0,20 3,37 6,37 4,0 41,-34 83,-76 63,-62 80,-75 98,-69 20,6 13,15 -69,92 -49,47 -90,88 -90,93 0,4 40,29 89,55 84,44 111,68 92,80 -5,2 -50,-18 -100,-45 -51,-28 -96,-50 -100,-50 -4,0 -12,21 -17,47 -10,54 -29,66 -44,28 z"
         id="path165" />
      <path
         id="path167"
         style="stroke-width:0.189282"
         transform="matrix(5.2831091,0,0,-5.2831091,76.708014,3447.0481)"
         d="m 428.58984,432.89844 c -0.94641,0 -2.08042,3.59572 -2.45898,7.94922 -1.1357,9.08556 -8.7073,28.01367 -11.16797,28.01367 -0.94641,0 -4.16484,-4.92148 -7.19336,-10.97852 -5.11063,-10.03197 -10.78847,-17.22485 -12.30273,-15.33203 -1.89283,2.46067 -8.32872,48.26792 -6.81446,48.64649 1.1357,0.37856 1.89258,4.16408 1.89258,8.51757 0.18928,6.43561 0.56777,7.38221 2.08203,4.54297 1.1357,-1.89282 1.51512,-4.73166 0.94727,-6.05664 -0.56785,-1.51426 -0.19055,-3.21926 0.75586,-3.78711 0.75713,-0.56784 2.65141,-7.19237 3.78711,-14.76367 3.2178,-19.68538 3.4061,-19.87472 7.57031,-13.06055 2.08211,3.21781 3.21841,7.00332 2.83984,8.51758 -0.56784,1.32498 0.1887,3.97632 1.51368,5.86914 3.59636,4.73206 9.6531,2.64952 8.32812,-2.65039 -0.56785,-2.27139 1.51479,-8.8966 4.92188,-15.52148 l 5.86718,-11.73633 6.05664,18.74023 c 3.21781,10.41054 6.62586,22.33579 7.57227,26.5 1.13569,5.11063 2.83816,7.76011 5.29883,8.13868 3.02852,0.75713 3.40718,5e-5 2.27148,-6.43555 -2.27139,-11.54623 -20.06403,-65.11328 -21.76758,-65.11328 z" />
      <path
         d="m 3929,1107 c -106,-71 -84,-232 40,-292 31,-15 41,-26 42,-45 1,-23 2,-23 8,4 4,21 14,32 34,37 16,4 35,13 43,20 16,13 20,10 91,-53 24,-21 49,-38 58,-38 18,0 20,16 3,23 -7,3 -4,6 6,6 19,1 19,2 -1,24 -11,12 -26,32 -32,44 -6,12 -24,29 -39,39 -27,15 -28,20 -24,64 6,65 -12,112 -59,154 -33,31 -46,36 -88,36 -33,0 -58,-7 -82,-23 z m 143,-29 c 43,-16 72,-100 52,-152 -5,-12 -14,-10 -53,15 -27,16 -56,29 -65,29 -23,0 -20,-27 5,-48 72,-58 75,-61 59,-72 -21,-13 -70,-12 -100,3 -33,17 -70,84 -70,129 0,45 38,94 83,106 32,9 41,8 89,-10 z"
         id="path169" />
      <path
         d="m 1807,1114 c -4,-4 -7,-60 -7,-125 0,-108 -2,-119 -20,-129 -11,-6 -24,-19 -30,-30 -9,-17 -7,-22 15,-30 22,-8 25,-15 25,-60 0,-35 3,-49 11,-44 7,4 9,24 6,56 -6,45 -4,49 19,58 34,13 32,14 37,-17 l 4,-28 2,29 c 1,21 5,27 17,22 29,-11 184,-19 184,-9 0,10 -27,20 -142,53 l -77,23 -3,116 c -2,95 -6,116 -18,119 -9,1 -19,0 -23,-4 z"
         id="path171" />
      <path
         d="m 620,590 c 0,-6 5,-19 11,-29 8,-11 9,-29 4,-47 -5,-16 -8,-32 -7,-36 1,-3 3,-50 6,-105 l 4,-98 h 28 c 28,0 28,0 25,64 l -3,63 34,-23 c 18,-13 78,-67 134,-121 55,-54 104,-98 107,-98 4,0 7,8 7,18 0,11 -50,68 -114,130 -63,62 -111,114 -108,116 4,2 20,6 36,10 49,12 76,36 76,68 0,42 -17,68 -55,84 -40,16 -185,19 -185,4 z m 189,-74 c 19,-23 -2,-51 -47,-64 -59,-18 -62,-16 -62,33 v 45 h 49 c 30,0 53,-5 60,-14 z"
         id="path175" />
      <path
         id="path179"
         style="stroke-width:0.189282"
         transform="matrix(5.2831091,0,0,-5.2831091,76.708014,3447.0481)"
         d="m 670.28711,544.47852 c -0.22089,0.0148 -0.4496,0.0518 -0.6875,0.11132 -3.17196,0.79299 -7.85976,5.56963 -14.24805,14.56055 -5.67847,7.94986 -10.78974,15.3311 -11.54687,16.4668 -0.56785,0.94641 -7.38166,-3.59582 -14.76367,-10.22071 -10.78911,-9.46412 -14.00706,-11.54678 -15.33204,-9.27539 -3.02852,4.73207 -0.94628,8.13871 10.97852,16.84571 6.4356,4.73206 11.73633,9.27607 11.73633,10.0332 0.18928,0.75713 -5.1111,9.08436 -11.35742,18.16992 -11.73552,16.84614 -12.68246,21.00977 -4.92188,21.00977 4.16422,0 9.65399,-7.0033 17.98242,-23.66016 2.08211,-4.16421 10.03205,-14.76371 17.41407,-23.4707 16.84614,-19.87466 19.68418,-24.0384 18.16992,-27.63477 -0.7453,-2.04957 -1.87758,-3.03896 -3.42383,-2.93554 z" />
      <path
         id="path181"
         style="stroke-width:0.189282"
         transform="matrix(5.2831091,0,0,-5.2831091,76.708014,3447.0481)"
         d="m 247.41406,550.02734 c 0.006,-0.015 -0.0194,0.0815 -0.0703,0.25977 0.0332,-0.135 0.064,-0.24391 0.0703,-0.25977 z" />
      <path
         d="m 1212,529 c -64,-11 -108,-32 -122,-60 -17,-31 -7,-44 59,-79 68,-36 141,-109 141,-139 0,-44 -91,-90 -148,-76 -39,10 -82,44 -82,66 0,12 -7,19 -20,19 -23,0 -25,-17 -7,-41 19,-26 88,-69 108,-69 17,0 19,-9 21,-77 l 2,-78 3,73 c 3,51 8,72 17,72 10,0 12,-16 8,-70 -3,-48 -1,-70 7,-70 7,0 11,24 11,70 0,59 3,71 20,80 19,10 20,7 22,-72 l 2,-83 3,78 c 4,77 5,79 45,118 37,35 40,42 35,75 -8,50 -49,99 -121,146 -33,21 -61,45 -61,51 0,7 20,14 47,17 46,6 93,34 82,51 -3,5 -8,8 -12,8 -4,-1 -31,-5 -60,-10 z"
         id="path183" />
      <path
         id="path185"
         style="stroke-width:0.189282"
         transform="matrix(5.2831091,0,0,-5.2831091,76.708014,3447.0481)"
         d="m 409.47266,554.03906 c -0.56785,0 -2.08145,0.75672 -3.59571,1.70313 -3.97493,2.46067 -1.7036,13.81853 6.43555,33.5039 3.78565,9.27485 7.571,19.30564 8.32812,22.52344 0.94643,4.3535 2.27083,5.67969 5.86719,5.67969 3.59637,0 4.73242,-0.94804 4.73242,-3.97656 0.18929,-2.08211 5.67818,-11.54547 12.68165,-20.82032 17.2247,-23.47102 21.76797,-32.93554 15.71093,-32.93554 -1.51426,0 -7.19245,6.6263 -12.68164,14.57617 -5.29991,8.13915 -12.11389,17.98014 -14.95312,21.95508 l -5.11133,7.19336 -8.13867,-24.79493 c -4.54278,-13.43905 -8.70755,-24.60742 -9.27539,-24.60742 z" />
      <path
         id="path187"
         style="stroke-width:0.189282"
         transform="matrix(5.2831091,0,0,-5.2831091,76.708014,3447.0481)"
         d="m 597.24219,555.93164 c -2.08211,0 -7.38242,5.67955 -13.43946,14.19727 -5.67847,7.76058 -10.59995,14.19531 -10.97851,14.19531 -0.18928,0 -3.59716,-3.40805 -7.38281,-7.57227 -12.87121,-14.19618 -18.54997,-7.38054 -6.81446,8.14063 l 7.57227,10.03125 -9.27539,12.11328 c -7.38202,9.65341 -9.08509,13.25146 -8.13867,17.03711 0.56784,2.64995 1.51418,5.10989 2.08203,5.67773 1.51426,1.32498 13.62875,-13.24952 17.79297,-21.38867 l 3.78515,-7.19336 8.32813,10.41016 c 7.76058,9.27484 14.95322,14.38645 17.22461,11.92578 0.94641,-0.94641 -8.13879,-17.03588 -14.76367,-26.5 l -3.78516,-5.11133 7.0039,-10.97656 c 3.97494,-5.86776 8.70679,-13.06115 10.59961,-15.90039 4.54278,-6.43561 4.54295,-9.08594 0.18946,-9.08594 z" />
      <path
         d="m 3802,478 c 3,-33 3,-33 73,-41 132,-14 131,-9 12,-124 -58,-55 -102,-104 -98,-109 3,-5 23,-17 44,-26 36,-17 38,-17 78,4 37,19 50,20 165,14 131,-7 124,-9 128,37 1,9 -39,13 -157,17 l -157,5 97,85 c 73,64 98,92 98,110 v 24 l -110,-3 c -99,-2 -113,0 -137,18 -35,28 -40,27 -36,-11 z"
         id="path189" />
      <path
         id="path191"
         style="stroke-width:0.189282"
         transform="matrix(5.2831091,0,0,-5.2831091,76.708014,3447.0481)"
         d="m 379.17578,562.25586 c -1.17118,0.0532 -2.87469,0.58378 -4.15234,1.43555 -3.59637,2.0821 -6.24585,10.6001 -8.13867,26.31054 -1.70355,14.76404 -4.35388,22.33689 -9.08594,25.55469 -3.40709,2.46067 -12.11397,3.97307 -12.8711,2.26953 -0.18928,-0.18928 -0.75654,-10.03189 -1.51367,-21.57812 -1.32497,-21.76749 -3.59589,-28.20294 -8.13867,-23.66016 -1.70354,1.70354 -2.46094,8.89637 -2.46094,21.76758 0,21.5782 2.27135,28.58239 10.78907,33.31445 4.54278,2.64996 6.05726,2.65013 13.25,0.18946 10.41053,-3.59638 15.33085,-12.11431 18.35937,-32.7461 1.32498,-8.51771 3.59724,-16.84546 5.30078,-18.73828 3.02852,-3.2178 2.64962,-13.25068 -0.3789,-14.00781 -0.23661,-0.0946 -0.56859,-0.12908 -0.95899,-0.11133 z" />
      <path
         d="m 2932,458 c -20,-24 -59,-140 -77,-223 -9,-44 -17,-81 -19,-82 -6,-6 -59,215 -60,250 -1,42 -16,47 -45,18 -21,-21 -51,-108 -51,-147 0,-13 -4,-25 -9,-28 -4,-3 -11,30 -14,73 -5,85 -19,121 -44,121 -14,0 -15,-10 -10,-78 3,-42 13,-104 22,-137 8,-32 15,-74 15,-92 0,-72 33,-27 70,96 14,45 25,68 30,60 4,-8 17,-54 30,-102 19,-72 28,-91 47,-100 15,-6 27,-7 33,-1 11,11 103,361 98,376 -2,6 -9,4 -16,-4 z"
         id="path193" />
      <path
         d="m 1393,384 c -7,-20 13,-34 50,-34 28,0 28,0 23,-52 -17,-168 -17,-175 -1,-188 8,-7 19,-10 22,-6 4,4 14,59 23,123 10,77 20,118 29,121 11,4 12,-10 6,-68 -5,-52 -4,-71 4,-66 6,4 11,31 12,59 1,41 3,47 9,27 8,-24 8,-23 9,8 1,34 10,37 91,34 25,-1 25,-1 -3,11 -15,6 -26,16 -23,23 6,17 -40,24 -151,24 -77,0 -95,-3 -100,-16 z"
         id="path195" />
    </g>
    <path
       id="path263-9-55-3"
       style="fill:#4684ea;fill-opacity:1;stroke:#4683ea;stroke-width:0.0557813;stroke-opacity:1"
       d="m 117.10721,146.67273 c -0.0302,-1.0609 0.45974,-1.22535 1.09122,-1.24333 0.63149,-0.018 1.16544,0.11736 1.19563,1.17826 0.0302,1.06091 -0.45484,2.64565 -1.08633,2.66361 -0.6315,0.018 -1.17033,-1.53764 -1.20052,-2.59854 z"
       sodipodi:nodetypes="sssss" />
    <path
       id="path263-9-55-5"
       style="fill:#1263e9;fill-opacity:1;stroke:#1263e9;stroke-width:0.0557813;stroke-opacity:1"
       d="m 58.408535,117.64282 c -0.317965,-1.01258 0.108641,-1.30423 0.711358,-1.4935 0.602727,-0.18928 1.153352,-0.20448 1.471327,0.8081 0.317965,1.01258 0.282885,2.66951 -0.319841,2.85878 -0.602737,0.18928 -1.544869,-1.16079 -1.862844,-2.17338 z"
       sodipodi:nodetypes="sssss" />
    <path
       id="path263-9-55-5-2"
       style="fill:#6bbeff;fill-opacity:1;stroke:#6bbeff;stroke-width:0.0557813;stroke-opacity:1"
       d="m 77.405804,117.8935 c 0.389117,-0.98743 0.904236,-0.94614 1.491985,-0.71453 0.587763,0.2316 1.025589,0.56586 0.63648,1.55329 -0.389117,0.98743 -1.457817,2.25413 -2.045573,2.02251 -0.587771,-0.23161 -0.472007,-1.87383 -0.08289,-2.86127 z"
       sodipodi:nodetypes="sssss" />
    <path
       id="path263-9-1"
       style="fill:#ab0165;fill-opacity:1;stroke:#ab0165;stroke-width:0.0557813;stroke-opacity:1"
       d="m 71.727378,82.568341 c 0.139463,-1.052127 0.649327,-1.136313 1.275598,-1.053304 0.626275,0.083 1.131792,0.301789 0.992336,1.353914 -0.139463,1.052129 -0.87108,2.539198 -1.497353,2.456186 -0.626274,-0.083 -0.910039,-1.704664 -0.770581,-2.756796 z"
       sodipodi:nodetypes="sssss" />
    <path
       id="path263-9-1-1"
       style="fill:#ff005c;fill-opacity:1;stroke:#ff005c;stroke-width:0.0557813;stroke-opacity:1"
       d="m 41.122247,113.50452 c -0.159506,-1.04927 0.306647,-1.27231 0.931219,-1.36726 0.624574,-0.095 1.171053,-0.0258 1.330564,1.02342 0.159508,1.04928 -0.128336,2.68139 -0.752911,2.77634 -0.624573,0.095 -1.349357,-1.38321 -1.508872,-2.4325 z"
       sodipodi:nodetypes="sssss" />
    <path
       id="path263-9-1-5"
       style="fill:#ff0061;fill-opacity:1;stroke:#ff0061;stroke-width:0.0557813;stroke-opacity:1"
       d="m 146.72266,91.61718 c -0.7976,-0.700179 -0.58451,-1.170974 -0.16774,-1.645742 0.41676,-0.474774 0.87942,-0.773724 1.67702,-0.07355 0.79761,0.700181 1.62815,2.134352 1.21137,2.609118 -0.41677,0.474773 -1.92304,-0.189644 -2.72065,-0.889829 z"
       sodipodi:nodetypes="sssss" />
    <path
       id="path263-9-1-5-2"
       style="fill:#00ecff;fill-opacity:1;stroke:#00ecff;stroke-width:0.0557813;stroke-opacity:1"
       d="m 162.20666,89.724012 c -0.18819,-1.044509 0.27168,-1.280244 0.89342,-1.392272 0.62172,-0.112039 1.1699,-0.05791 1.3581,0.986592 0.1882,1.044516 -0.0548,2.683901 -0.67656,2.795921 -0.62174,0.112032 -1.38675,-1.345724 -1.57495,-2.390244 z"
       sodipodi:nodetypes="sssss" />
    <path
       id="path263-9-5"
       style="fill:#00ff6b;fill-opacity:1;stroke:#00ff6b;stroke-width:0.056;stroke-miterlimit:4;stroke-dasharray:none;stroke-opacity:1"
       d="m 95.635688,85.575351 c 0.218193,-1.038659 0.732944,-1.084262 1.351199,-0.95439 0.618259,0.129867 1.105891,0.386051 0.887704,1.42471 -0.218194,1.03866 -1.059574,2.466497 -1.67783,2.336621 -0.618259,-0.129867 -0.779263,-1.768277 -0.561073,-2.806941 z"
       sodipodi:nodetypes="sssss" />
    <path
       id="path263-9-55"
       style="fill:#0060ff;fill-opacity:1;stroke:#0060ff;stroke-width:0.0557813;stroke-opacity:1"
       d="m 107.07632,87.532194 c -0.32482,-1.010402 0.0998,-1.304942 0.70122,-1.498294 0.60143,-0.19336 1.15194,-0.212289 1.47677,0.798109 0.32482,1.010404 0.30097,2.667531 -0.30046,2.860881 -0.60144,0.193359 -1.5527,-1.150291 -1.87753,-2.160696 z"
       sodipodi:nodetypes="sssss" />
    <path
       id="path263-9-55-9"
       style="fill:#000897;fill-opacity:1;stroke:#000897;stroke-width:0.0557813;stroke-opacity:1"
       d="m 57.099567,81.528543 c -0.582422,-0.887245 -0.251688,-1.284323 0.276423,-1.631007 0.528119,-0.346694 1.053661,-0.511696 1.636092,0.375543 0.582422,0.887248 1.001199,2.490764 0.473078,2.837449 -0.528129,0.346696 -1.80316,-0.694739 -2.385593,-1.581985 z"
       sodipodi:nodetypes="sssss" />
    <path
       id="path263-9-8"
       style="fill:#ffb900;fill-opacity:1;stroke:#ffb900;stroke-width:0.0557813;stroke-opacity:1"
       d="m 131.78329,92.265636 c -0.32482,-1.010402 0.0998,-1.304942 0.70122,-1.498294 0.60143,-0.19336 1.15194,-0.212289 1.47677,0.798109 0.32482,1.010404 0.30097,2.667531 -0.30046,2.860881 -0.60144,0.193359 -1.5527,-1.150291 -1.87753,-2.160696 z"
       sodipodi:nodetypes="sssss" />
    <path
       id="path263-9-8-1"
       style="fill:#f4b50f;fill-opacity:1;stroke:#f4b50f;stroke-width:0.0557813;stroke-opacity:1"
       d="m 96.781508,119.93087 c 0.0729,-1.05883 0.57646,-1.17496 1.2067,-1.13158 0.63026,0.0434 1.14856,0.22988 1.07567,1.2887 -0.0729,1.05883 -0.70937,2.58904 -1.33963,2.54565 -0.63026,-0.0434 -1.01563,-1.64394 -0.94274,-2.70277 z"
       sodipodi:nodetypes="sssss" />
    <path
       id="path263-9-8-2"
       style="fill:#ffd869;fill-opacity:1;stroke:#ffd869;stroke-width:0.056;stroke-miterlimit:4;stroke-dasharray:none;stroke-opacity:1"
       d="m 38.200532,79.935858 c -0.112011,-1.055402 0.363738,-1.25719 0.991946,-1.323872 0.628219,-0.06669 1.171026,0.02701 1.283048,1.082412 0.112011,1.055404 -0.249171,2.672867 -0.877388,2.739545 -0.628229,0.06668 -1.285585,-1.442677 -1.397606,-2.498085 z"
       sodipodi:nodetypes="sssss" />
    <path
       id="path263-9-1-5-2-7"
       style="fill:#11e5f6;fill-opacity:1;stroke:#11e6f7;stroke-width:0.0557813;stroke-opacity:1"
       d="m 13.076233,105.45601 c 0.138982,-1.05219 0.648808,-1.13661 1.275122,-1.05389 0.626298,0.0827 1.131922,0.30128 0.992956,1.35345 -0.138975,1.0522 -0.869883,2.53961 -1.496213,2.45688 -0.626314,-0.0827 -0.910831,-1.70424 -0.771856,-2.75644 z"
       sodipodi:nodetypes="sssss" />
    <path
       id="path263-9-1-1-1"
       style="fill:#f20a5e;fill-opacity:1;stroke:#f20a5e;stroke-width:0.0557813;stroke-opacity:1"
       d="m 111.13278,115.35218 c -0.22631,-1.03691 0.22463,-1.28932 0.84185,-1.42403 0.61721,-0.13476 1.167,-0.10066 1.3933,0.9362 0.22631,1.03693 0.0435,2.68411 -0.57375,2.81882 -0.61721,0.13476 -1.43509,-1.29405 -1.6614,-2.33099 z"
       sodipodi:nodetypes="sssss" />
    <path
       id="path263-9-1-0"
       style="fill:#ab0159;fill-opacity:1;stroke:#ab0159;stroke-width:0.0557813;stroke-opacity:1"
       d="m 128.56307,111.74919 c -0.0964,-1.05695 0.38227,-1.25168 1.01142,-1.30906 0.62913,-0.0574 1.17049,0.0443 1.26689,1.10127 0.0964,1.05694 -0.28867,2.66888 -0.91781,2.72626 -0.62914,0.0574 -1.26411,-1.46153 -1.3605,-2.51847 z"
       sodipodi:nodetypes="sssss" />
    <path
       id="path263-9-55-5-2-7"
       style="fill:#86dcf8;fill-opacity:1;stroke:#86dcf8;stroke-width:0.0557813;stroke-opacity:1"
       d="m 144.2559,112.68514 c -0.16709,-1.0481 0.29745,-1.27449 0.92131,-1.37395 0.62387,-0.0995 1.17083,-0.0343 1.33794,1.01378 0.16708,1.04811 -0.10896,2.68225 -0.73284,2.78171 -0.62389,0.0995 -1.35931,-1.37343 -1.52641,-2.42153 z"
       sodipodi:nodetypes="sssss" />
    <path
       id="path263-9-1-1-2"
       style="fill:#f70f77;fill-opacity:1;stroke:#f70f77;stroke-width:0.0557813;stroke-opacity:1"
       d="m 178.56082,115.36738 c 0.12109,-1.0544 0.6294,-1.14746 1.25703,-1.07538 0.62764,0.072 1.13688,0.28204 1.0158,1.33639 -0.12109,1.0544 -0.82667,2.554 -1.45429,2.48193 -0.62763,-0.072 -0.93963,-1.68853 -0.81854,-2.74294 z"
       sodipodi:nodetypes="sssss" />
    <path
       id="path263-9-55-5-2-7-8"
       style="fill:#9ae1f9;fill-opacity:1;stroke:#9ae1f9;stroke-width:0.0557813;stroke-opacity:1"
       d="m 26.935318,139.66284 c 0.332545,-1.00788 0.849178,-0.99584 1.449106,-0.7979 0.599954,0.19791 1.055991,0.50685 0.723468,1.51473 -0.332568,1.00791 -1.327778,2.33311 -1.927723,2.13516 -0.599973,-0.19792 -0.577396,-1.84409 -0.24486,-2.85197 z"
       sodipodi:nodetypes="sssss" />
    <path
       id="path263-9-8-2-5"
       style="fill:#f4cd5d;fill-opacity:1;stroke:#f4cd5c;stroke-width:0.056;stroke-miterlimit:4;stroke-dasharray:none;stroke-opacity:1"
       d="m 45.349526,145.98081 c -0.112011,-1.05541 0.363738,-1.25719 0.991946,-1.32388 0.628219,-0.0667 1.171026,0.027 1.283048,1.08242 0.112011,1.0554 -0.249171,2.67286 -0.877388,2.73954 -0.628229,0.0667 -1.285585,-1.44268 -1.397606,-2.49808 z"
       sodipodi:nodetypes="sssss" />
    <path
       id="path263-9-8-1-9"
       style="fill:#f3b91e;fill-opacity:1;stroke:#f3b91e;stroke-width:0.0557813;stroke-opacity:1"
       d="m 60.494251,147.95888 c 0.0729,-1.05883 0.57646,-1.17496 1.2067,-1.13158 0.63026,0.0434 1.14856,0.22988 1.07567,1.2887 -0.0729,1.05883 -0.70937,2.58904 -1.33963,2.54565 -0.63026,-0.0434 -1.01563,-1.64394 -0.94274,-2.70277 z"
       sodipodi:nodetypes="sssss" />
    <path
       id="path263-9-55-5-4"
       style="fill:#236fed;fill-opacity:1;stroke:#236fee;stroke-width:0.0557813;stroke-opacity:1"
       d="m 82.694638,149.40262 c -0.570136,-0.89519 -0.233953,-1.28767 0.298883,-1.62704 0.532848,-0.33938 1.060615,-0.49712 1.630758,0.39806 0.570136,0.89519 0.966767,2.50434 0.433921,2.84371 -0.532859,0.33937 -1.793412,-0.71954 -2.363559,-1.61473 z"
       sodipodi:nodetypes="sssss" />
    <path
       id="path263-9-1-1-5"
       style="fill:#f13478;fill-opacity:1;stroke:#f13478;stroke-width:0.0557813;stroke-opacity:1"
       d="m 100.54436,149.03884 c -0.0307,-1.06088 0.45918,-1.22555 1.09066,-1.2438 0.63149,-0.0183 1.16549,0.11687 1.19616,1.1777 0.0307,1.06089 -0.45362,2.64585 -1.08511,2.66411 -0.63149,0.0183 -1.17105,-1.53711 -1.20171,-2.59801 z"
       sodipodi:nodetypes="sssss" />
    <path
       id="path263-9-8-1-6"
       style="fill:#e5aa0e;fill-opacity:1;stroke:#e5aa0e;stroke-width:0.0557813;stroke-opacity:1"
       d="m 131.2782,145.13288 c -0.34347,-1.00422 0.0756,-1.30656 0.67336,-1.51102 0.59775,-0.20444 1.14781,-0.23358 1.49129,0.77062 0.34348,1.00422 0.35032,2.66151 -0.24743,2.86596 -0.59776,0.20445 -1.57373,-1.12134 -1.91722,-2.12556 z"
       sodipodi:nodetypes="sssss" />
    <path
       id="path263-9-1-1-5-3"
       style="fill:#ef588e;fill-opacity:1;stroke:#ee588e;stroke-width:0.0557813;stroke-opacity:1"
       d="m 150.10708,145.3818 c 0.0416,-1.06051 0.54152,-1.19147 1.17278,-1.1667 0.63127,0.0247 1.15483,0.19591 1.11324,1.25637 -0.0416,1.06052 -0.63262,2.60885 -1.26389,2.58409 -0.63127,-0.0247 -1.06373,-1.61324 -1.02213,-2.67376 z"
       sodipodi:nodetypes="sssss" />
    <path
       id="path263-9-1-1-5-3-0"
       style="fill:#e24880;fill-opacity:1;stroke:#e24880;stroke-width:0.0557813;stroke-opacity:1"
       d="m 174.2952,144.92558 c -0.0483,-1.06023 0.43874,-1.23303 1.06983,-1.26177 0.63109,-0.0288 1.16726,0.0975 1.21557,1.15764 0.0483,1.06024 -0.40955,2.65303 -1.04065,2.68179 -0.6311,0.0288 -1.19645,-1.51743 -1.24475,-2.57766 z"
       sodipodi:nodetypes="sssss" />
  </g>
</svg>
